<svg xmlns="http://www.w3.org/2000/svg" viewBox="0 0 560 350"><rect width="560" height="350" rx="16" fill="#f4f4f1"/><g fill="#fff" stroke="#0a0a0a" stroke-width="2"><rect x="36" y="43" width="145" height="68" rx="10"/><rect x="207" y="43" width="145" height="68" rx="10"/><rect x="378" y="43" width="145" height="68" rx="10"/><rect x="121" y="150" width="145" height="68" rx="10"/><rect x="293" y="150" width="145" height="68" rx="10"/><rect x="207" y="257" width="145" height="55" rx="10"/></g><g fill="none" stroke="#0a0a0a" stroke-width="2"><path d="M181 77h26m145 0h26M279 111v25h-85v14m85-39v39h86M194 218v20h85v19m86-39v20h-86"/><path d="m197 72 10 5-10 5m171-10 10 5-10 5m-179 58 5 10 5-10m161 0 5 10 5-10m-96 107 5 10 5-10" fill="#0a0a0a"/></g><g font-family="Arial,sans-serif" text-anchor="middle" fill="#0a0a0a"><text x="108" y="73" font-size="12" font-weight="700">SITEMAP</text><text x="108" y="91" font-size="9">discover URLs</text><text x="279" y="73" font-size="12" font-weight="700">CRAWLER</text><text x="279" y="91" font-size="9">Playwright</text><text x="450" y="73" font-size="12" font-weight="700">PAGES</text><text x="450" y="91" font-size="9">multiple types</text><text x="194" y="180" font-size="12" font-weight="700">CHECKS</text><text x="194" y="198" font-size="9">SEO · status · UX</text><text x="365" y="180" font-size="12" font-weight="700">FINDINGS</text><text x="365" y="198" font-size="9">structured data</text><text x="279" y="282" font-size="12" font-weight="700">CSV · JSON · REPORT</text><text x="279" y="299" font-size="9">actionable output</text></g></svg>